
<svg width="60px" height="59px" viewBox="0 0 60 59" version="1.1" xmlns="http://www.w3.org/2000/svg" xmlns:xlink="http://www.w3.org/1999/xlink">
    <!-- Generator: Sketch 51.3 (57544) - http://www.bohemiancoding.com/sketch -->
    <desc>Created with Sketch.</desc>
    <defs></defs>
    <g id="Page-1" stroke="none" stroke-width="1" fill="none" fill-rule="evenodd">
        <g id="002ConfirmBook1" transform="translate(-1009.000000, -421.000000)" stroke="#41A5F0">
            <g id="Group" transform="translate(1009.000000, 421.000000)">
                <circle id="Oval" fill="#B3DEFF" fill-rule="nonzero" cx="27" cy="32" r="26.5"></circle>
                <circle id="Oval" fill="#D7F4FE" fill-rule="nonzero" cx="48.5" cy="11.5" r="11"></circle>
                <ellipse id="Oval-2" fill="#D7F4FE" stroke-linecap="round" stroke-linejoin="round" cx="27.5" cy="32.5" rx="12.5" ry="15.5"></ellipse>
                <path d="M41.0000163,28.9459904 L41.0000163,35.1199904 L41.0000163,35.1200195 C41.001197,36.1511035 40.5950563,37.1409195 39.8699963,37.8740195 L38.9419963,38.8120195 C37.8558323,39.9115815 36.2156563,40.2514455 34.7819963,39.6740195 L32.2779963,38.6620195 L32.2779952,38.662019 C29.2122352,37.424121 25.7857552,37.424121 22.7199952,38.6620199 L20.2179952,39.6740199 L20.2179948,39.6740201 C18.7843388,40.2514461 17.1441548,39.9115821 16.0579948,38.8120201 L15.1299948,37.8740201 L15.129995,37.8740203 C14.404943,37.1409143 13.998817,36.1510883 14.000017,35.1200003 L14.000017,28.9460003 L14.000017,28.946004 C13.9955857,27.87645 14.858465,27.005512 15.928013,27 L39.072013,27 C40.1415629,27.0055097 41.0044429,27.876446 41.0000129,28.946 L41.0000163,28.9459904 Z" id="Shape" fill="#D7F4FE" stroke-linecap="round" stroke-linejoin="round"></path>
                <path d="M25,32 L31,32" id="Shape" stroke-linecap="round" stroke-linejoin="round"></path>
                <rect id="Rectangle-10" x="48.5" y="8.5" width="1" height="6"></rect>
                <rect id="Rectangle-10" transform="translate(48.500000, 11.500000) rotate(-270.000000) translate(-48.500000, -11.500000) " x="48.5" y="8.5" width="1" height="6"></rect>
            </g>
        </g>
    </g>
</svg>