
<svg width="735px" height="529px" viewBox="0 0 735 529" version="1.1" xmlns="http://www.w3.org/2000/svg" xmlns:xlink="http://www.w3.org/1999/xlink">
    <!-- Generator: Sketch 51.3 (57544) - http://www.bohemiancoding.com/sketch -->
    <desc>Created with Sketch.</desc>
    <defs></defs>
    <g id="Page-1" stroke="none" stroke-width="1" fill="none" fill-rule="evenodd" opacity="0.400837054">
        <g id="002ConfirmBook1" transform="translate(-705.000000, -551.000000)">
            <g id="Group-433" transform="translate(705.000000, 551.000000)">
                <path d="M517.874444,387.309867 C521.094697,311.439642 461.976978,247.334087 385.831606,244.125129 C309.686233,240.916171 245.345809,299.819909 242.125556,375.690133 C238.905303,451.560358 298.023022,515.665913 374.169528,518.874871 C450.314901,522.083829 514.654191,463.180091 517.874444,387.309867 Z" id="Stroke-1" stroke="#82848C" stroke-width="0.25"></path>
                <path d="M104,388.812 L655,388" id="Stroke-3" stroke="#82848C" stroke-width="0.25"></path>
                <path d="M380,113 L380.568,664" id="Stroke-5" stroke="#82848C" stroke-width="0.25"></path>
                <path d="M109,437 L651,340" id="Stroke-7" stroke="#82848C" stroke-width="0.25"></path>
                <path d="M331,117 L428,660" id="Stroke-9" stroke="#82848C" stroke-width="0.25"></path>
                <path d="M121,483 L638,293" id="Stroke-11" stroke="#82848C" stroke-width="0.25"></path>
                <path d="M285,130 L475,647" id="Stroke-13" stroke="#82848C" stroke-width="0.25"></path>
                <path d="M141,527 L617,250" id="Stroke-15" stroke="#82848C" stroke-width="0.25"></path>
                <path d="M241,150 L518,626" id="Stroke-17" stroke="#82848C" stroke-width="0.25"></path>
                <path d="M170,567 L591,211" id="Stroke-19" stroke="#82848C" stroke-width="0.25"></path>
                <path d="M202,178 L558,599" id="Stroke-21" stroke="#82848C" stroke-width="0.25"></path>
                <path d="M204,600 L556,177" id="Stroke-23" stroke="#82848C" stroke-width="0.25"></path>
                <path d="M168,212 L591,565" id="Stroke-25" stroke="#82848C" stroke-width="0.25"></path>
                <path d="M243,628 L517,150" id="Stroke-27" stroke="#82848C" stroke-width="0.25"></path>
                <path d="M140,252 L618,526" id="Stroke-29" stroke="#82848C" stroke-width="0.25"></path>
                <path d="M287,649 L474,130" id="Stroke-31" stroke="#82848C" stroke-width="0.25"></path>
                <path d="M121,295 L640,482" id="Stroke-33" stroke="#82848C" stroke-width="0.25"></path>
                <path d="M332,660 L426,117" id="Stroke-35" stroke="#82848C" stroke-width="0.25"></path>
                <path d="M108,342 L651,436" id="Stroke-37" stroke="#82848C" stroke-width="0.25"></path>
                <path d="M631.148287,424.367362 C655.374682,285.937729 562.796297,154.079282 424.366875,129.851718 C285.938585,105.625287 154.079204,198.203812 129.851678,336.633444 C105.625283,475.061944 198.2048,606.921524 336.63309,631.147955 C475.062513,655.375518 606.920761,562.796994 631.148287,424.367362 Z" id="Stroke-39" stroke="#82848C" stroke-width="0.25" stroke-dasharray="20,20"></path>
                <path d="M656,381.5 C656,229.345772 532.654228,106 380.5,106 C228.345772,106 105,229.345772 105,381.5 C105,533.654228 228.345772,657 380.5,657 C532.654228,657 656,533.654228 656,381.5 Z" id="Stroke-41" stroke="#82848C" stroke-width="0.25"></path>
                <path d="M243,104 L243,659" id="Stroke-43" stroke="#82848C" stroke-width="0.25"></path>
                <path d="M518,106 L518,657" id="Stroke-45" stroke="#82848C" stroke-width="0.229"></path>
                <path d="M656,245 L99,245" id="Stroke-47" stroke="#82848C" stroke-width="0.25"></path>
                <path d="M655,519 L104,519" id="Stroke-49" stroke="#82848C" stroke-width="0.25"></path>
                <polygon id="Stroke-51" stroke="#82848C" stroke-width="0.25" points="618 519.25 618 243.75 379.500567 106 141 243.75 141 519.25 379.500567 657"></polygon>
                <polygon id="Stroke-53" stroke="#82848C" stroke-width="0.25" points="500 449.500283 500 312.50085 380.999432 244 262 312.50085 262 449.500283 380.999432 518"></polygon>
                <path d="M381,106 C381,104.896 380.104,104 379,104 C377.896,104 377,104.896 377,106 C377,107.104 377.896,108 379,108 C380.104,108 381,107.104 381,106" id="Fill-55" fill="#82848C"></path>
                <path d="M143.266708,242.452261 C142.411676,241.752266 141.151628,241.879265 140.452602,242.733259 C139.752576,243.588253 139.87858,244.848243 140.733613,245.548238 C141.588645,246.247233 142.848692,246.121234 143.547719,245.26624 C144.247745,244.411246 144.12074,243.151256 143.266708,242.452261" id="Fill-57" fill="#82848C"></path>
                <path d="M143.266708,517.452261 C142.411676,516.752266 141.151628,516.879265 140.452602,517.733259 C139.752576,518.588253 139.87858,519.848243 140.733613,520.548238 C141.588645,521.247233 142.848692,521.121234 143.547719,520.26624 C144.247745,519.411246 144.12074,518.151256 143.266708,517.452261" id="Fill-59" fill="#82848C"></path>
                <path d="M620.266708,517.452261 C619.411676,516.752266 618.151628,516.879265 617.452602,517.733259 C616.752576,518.588253 616.87858,519.848243 617.733613,520.548238 C618.588645,521.247233 619.848692,521.121234 620.547719,520.26624 C621.247745,519.411246 621.12074,518.151256 620.266708,517.452261" id="Fill-63" fill="#82848C"></path>
                <path d="M620.266708,243.452261 C619.411676,242.752266 618.151628,242.879265 617.452602,243.733259 C616.752576,244.588253 616.87858,245.848243 617.733613,246.548238 C618.588645,247.247233 619.848692,247.121234 620.547719,246.26624 C621.247745,245.411246 621.12074,244.151256 620.266708,243.452261" id="Fill-65" fill="#82848C"></path>
                <path d="M498.891245,386.549346 C501.680208,320.611559 450.487418,264.897097 384.549414,262.108711 C318.611409,259.320326 262.897718,310.512866 260.108755,376.450654 C257.319792,442.388441 308.512582,498.10177 374.450586,500.891289 C440.388591,503.679674 496.102282,452.487134 498.891245,386.549346 Z" id="Stroke-67" stroke="#82848C" stroke-width="0.25"></path>
                <path d="M457.929459,384.77544 C459.738327,342.012731 426.538145,305.880021 383.774866,304.070503 C341.011588,302.262116 304.879324,335.462978 303.070455,378.225688 C301.262714,420.989528 334.462897,457.121107 377.226175,458.929494 C419.988326,460.737882 456.12059,427.53815 457.929459,384.77544 Z" id="Stroke-69" stroke="#82848C" stroke-width="0.25"></path>
                <path d="M745,381.5 C745,180.192325 581.807929,17 380.500567,17 C179.192071,17 16,180.192325 16,381.5 C16,582.807675 179.192071,746 380.500567,746 C581.807929,746 745,582.807675 745,381.5 Z" id="Stroke-71" stroke="#82848C" stroke-width="0.25"></path>
                <path d="M382,0 L382,34" id="Stroke-73" stroke="#82848C" stroke-width="0.25"></path>
                <path d="M763,382 L729,382" id="Stroke-77" stroke="#82848C" stroke-width="0.25"></path>
                <path d="M34,382 L0,382" id="Stroke-79" stroke="#82848C" stroke-width="0.25"></path>
                <path d="M368,0 L369,34" id="Stroke-81" stroke="#82848C" stroke-width="0.25"></path>
                <path d="M763,368 L729,369" id="Stroke-85" stroke="#82848C" stroke-width="0.25"></path>
                <path d="M34,394 L0,395" id="Stroke-87" stroke="#82848C" stroke-width="0.25"></path>
                <path d="M355,1 L357,35" id="Stroke-89" stroke="#82848C" stroke-width="0.25"></path>
                <path d="M762,355 L728,357" id="Stroke-93" stroke="#82848C" stroke-width="0.25"></path>
                <path d="M35,406 L1,408" id="Stroke-95" stroke="#82848C" stroke-width="0.25"></path>
                <path d="M342,2 L345,36" id="Stroke-97" stroke="#82848C" stroke-width="0.25"></path>
                <path d="M761,342 L727,345" id="Stroke-101" stroke="#82848C" stroke-width="0.25"></path>
                <path d="M36,418 L2,421" id="Stroke-103" stroke="#82848C" stroke-width="0.25"></path>
                <path d="M328,3 L333,37" id="Stroke-105" stroke="#82848C" stroke-width="0.25"></path>
                <path d="M760,328 L726,333" id="Stroke-109" stroke="#82848C" stroke-width="0.25"></path>
                <path d="M37,430 L3,435" id="Stroke-111" stroke="#82848C" stroke-width="0.25"></path>
                <path d="M315,6 L321,39" id="Stroke-113" stroke="#82848C" stroke-width="0.25"></path>
                <path d="M757,315 L724,321" id="Stroke-117" stroke="#82848C" stroke-width="0.25"></path>
                <path d="M39,442 L6,448" id="Stroke-119" stroke="#82848C" stroke-width="0.25"></path>
                <path d="M303,8 L310,41" id="Stroke-121" stroke="#82848C" stroke-width="0.25"></path>
                <path d="M754,303 L721,310" id="Stroke-125" stroke="#82848C" stroke-width="0.25"></path>
                <path d="M41,454 L8,461" id="Stroke-127" stroke="#82848C" stroke-width="0.25"></path>
                <path d="M289,12 L297,45" id="Stroke-129" stroke="#82848C" stroke-width="0.25"></path>
                <path d="M752,289 L719,297" id="Stroke-133" stroke="#82848C" stroke-width="0.25"></path>
                <path d="M45,465 L12,473" id="Stroke-135" stroke="#82848C" stroke-width="0.25"></path>
                <path d="M276,15 L285,47" id="Stroke-137" stroke="#82848C" stroke-width="0.25"></path>
                <path d="M748,276 L716,285" id="Stroke-141" stroke="#82848C" stroke-width="0.25"></path>
                <path d="M47,477 L15,486" id="Stroke-143" stroke="#82848C" stroke-width="0.25"></path>
                <path d="M263,18 L274,50" id="Stroke-145" stroke="#82848C" stroke-width="0.25"></path>
                <path d="M744,263 L712,274" id="Stroke-149" stroke="#82848C" stroke-width="0.25"></path>
                <path d="M50,489 L18,500" id="Stroke-151" stroke="#82848C" stroke-width="0.25"></path>
                <path d="M251,23 L263,55" id="Stroke-153" stroke="#82848C" stroke-width="0.25"></path>
                <path d="M740,251 L708,263" id="Stroke-157" stroke="#82848C" stroke-width="0.25"></path>
                <path d="M55,500 L23,512" id="Stroke-159" stroke="#82848C" stroke-width="0.25"></path>
                <path d="M239,27 L251,59" id="Stroke-161" stroke="#82848C" stroke-width="0.25"></path>
                <path d="M736,239 L704,251" id="Stroke-165" stroke="#82848C" stroke-width="0.25"></path>
                <path d="M59,512 L27,524" id="Stroke-167" stroke="#82848C" stroke-width="0.25"></path>
                <path d="M226,33 L240,64" id="Stroke-169" stroke="#82848C" stroke-width="0.25"></path>
                <path d="M730,226 L699,240" id="Stroke-173" stroke="#82848C" stroke-width="0.25"></path>
                <path d="M64,523 L33,537" id="Stroke-175" stroke="#82848C" stroke-width="0.25"></path>
                <path d="M214,38 L229,69" id="Stroke-177" stroke="#82848C" stroke-width="0.25"></path>
                <path d="M725,214 L694,229" id="Stroke-181" stroke="#82848C" stroke-width="0.25"></path>
                <path d="M203,45 L219,75" id="Stroke-185" stroke="#82848C" stroke-width="0.25"></path>
                <path d="M718,203 L688,219" id="Stroke-189" stroke="#82848C" stroke-width="0.25"></path>
                <path d="M190,51 L207,80" id="Stroke-193" stroke="#82848C" stroke-width="0.25"></path>
                <path d="M711,190 L682,207" id="Stroke-197" stroke="#82848C" stroke-width="0.25"></path>
                <path d="M180,58 L198,87" id="Stroke-201" stroke="#82848C" stroke-width="0.25"></path>
                <path d="M706,180 L677,198" id="Stroke-205" stroke="#82848C" stroke-width="0.25"></path>
                <path d="M168,65 L187,93" id="Stroke-209" stroke="#82848C" stroke-width="0.25"></path>
                <path d="M698,168 L670,187" id="Stroke-213" stroke="#82848C" stroke-width="0.25"></path>
                <path d="M157,73 L177,100" id="Stroke-217" stroke="#82848C" stroke-width="0.25"></path>
                <path d="M689,157 L662,177" id="Stroke-221" stroke="#82848C" stroke-width="0.25"></path>
                <path d="M146,81 L167,108" id="Stroke-225" stroke="#82848C" stroke-width="0.25"></path>
                <path d="M682,146 L655,167" id="Stroke-229" stroke="#82848C" stroke-width="0.25"></path>
                <path d="M136,89 L158,115" id="Stroke-233" stroke="#82848C" stroke-width="0.25"></path>
                <path d="M673,136 L647,158" id="Stroke-237" stroke="#82848C" stroke-width="0.25"></path>
                <path d="M126,98 L148,123" id="Stroke-241" stroke="#82848C" stroke-width="0.25"></path>
                <path d="M665,126 L640,148" id="Stroke-245" stroke="#82848C" stroke-width="0.25"></path>
                <path d="M116,107 L139,131" id="Stroke-249" stroke="#82848C" stroke-width="0.25"></path>
                <path d="M656,116 L632,139" id="Stroke-253" stroke="#82848C" stroke-width="0.25"></path>
                <path d="M107,116 L131,139" id="Stroke-257" stroke="#82848C" stroke-width="0.25"></path>
                <path d="M646,107 L623,131" id="Stroke-261" stroke="#82848C" stroke-width="0.25"></path>
                <path d="M98,126 L123,148" id="Stroke-265" stroke="#82848C" stroke-width="0.25"></path>
                <path d="M636,98 L614,123" id="Stroke-269" stroke="#82848C" stroke-width="0.25"></path>
                <path d="M89,136 L115,158" id="Stroke-273" stroke="#82848C" stroke-width="0.25"></path>
                <path d="M627,89 L605,115" id="Stroke-277" stroke="#82848C" stroke-width="0.25"></path>
                <path d="M81,146 L108,167" id="Stroke-281" stroke="#82848C" stroke-width="0.25"></path>
                <path d="M616,81 L595,108" id="Stroke-285" stroke="#82848C" stroke-width="0.25"></path>
                <path d="M73,157 L100,177" id="Stroke-289" stroke="#82848C" stroke-width="0.25"></path>
                <path d="M606,73 L586,100" id="Stroke-293" stroke="#82848C" stroke-width="0.25"></path>
                <path d="M65,168 L93,187" id="Stroke-297" stroke="#82848C" stroke-width="0.25"></path>
                <path d="M595,65 L576,93" id="Stroke-301" stroke="#82848C" stroke-width="0.25"></path>
                <path d="M58,180 L87,198" id="Stroke-305" stroke="#82848C" stroke-width="0.25"></path>
                <path d="M584,58 L566,87" id="Stroke-309" stroke="#82848C" stroke-width="0.25"></path>
                <path d="M51,190 L80,207" id="Stroke-313" stroke="#82848C" stroke-width="0.25"></path>
                <path d="M572,51 L555,80" id="Stroke-317" stroke="#82848C" stroke-width="0.25"></path>
                <path d="M45,203 L75,219" id="Stroke-321" stroke="#82848C" stroke-width="0.25"></path>
                <path d="M560,45 L544,75" id="Stroke-325" stroke="#82848C" stroke-width="0.25"></path>
                <path d="M38,214 L69,229" id="Stroke-329" stroke="#82848C" stroke-width="0.25"></path>
                <path d="M549,38 L534,69" id="Stroke-333" stroke="#82848C" stroke-width="0.25"></path>
                <path d="M33,226 L64,240" id="Stroke-337" stroke="#82848C" stroke-width="0.25"></path>
                <path d="M699,523 L730,537" id="Stroke-339" stroke="#82848C" stroke-width="0.25"></path>
                <path d="M537,33 L523,64" id="Stroke-341" stroke="#82848C" stroke-width="0.25"></path>
                <path d="M27,239 L59,251" id="Stroke-345" stroke="#82848C" stroke-width="0.25"></path>
                <path d="M704,512 L736,524" id="Stroke-347" stroke="#82848C" stroke-width="0.25"></path>
                <path d="M524,27 L512,59" id="Stroke-349" stroke="#82848C" stroke-width="0.25"></path>
                <path d="M23,251 L55,263" id="Stroke-353" stroke="#82848C" stroke-width="0.25"></path>
                <path d="M708,500 L740,512" id="Stroke-355" stroke="#82848C" stroke-width="0.25"></path>
                <path d="M512,23 L500,55" id="Stroke-357" stroke="#82848C" stroke-width="0.25"></path>
                <path d="M18,263 L50,274" id="Stroke-361" stroke="#82848C" stroke-width="0.25"></path>
                <path d="M712,489 L744,500" id="Stroke-363" stroke="#82848C" stroke-width="0.25"></path>
                <path d="M500,18 L489,50" id="Stroke-365" stroke="#82848C" stroke-width="0.25"></path>
                <path d="M15,276 L47,285" id="Stroke-369" stroke="#82848C" stroke-width="0.25"></path>
                <path d="M716,477 L748,486" id="Stroke-371" stroke="#82848C" stroke-width="0.25"></path>
                <path d="M486,15 L477,47" id="Stroke-373" stroke="#82848C" stroke-width="0.25"></path>
                <path d="M12,289 L45,297" id="Stroke-377" stroke="#82848C" stroke-width="0.25"></path>
                <path d="M719,465 L752,473" id="Stroke-379" stroke="#82848C" stroke-width="0.25"></path>
                <path d="M473,12 L465,45" id="Stroke-381" stroke="#82848C" stroke-width="0.25"></path>
                <path d="M8,303 L41,310" id="Stroke-385" stroke="#82848C" stroke-width="0.25"></path>
                <path d="M721,454 L754,461" id="Stroke-387" stroke="#82848C" stroke-width="0.25"></path>
                <path d="M461,8 L454,41" id="Stroke-389" stroke="#82848C" stroke-width="0.25"></path>
                <path d="M6,315 L39,321" id="Stroke-393" stroke="#82848C" stroke-width="0.25"></path>
                <path d="M724,442 L757,448" id="Stroke-395" stroke="#82848C" stroke-width="0.25"></path>
                <path d="M448,6 L442,39" id="Stroke-397" stroke="#82848C" stroke-width="0.25"></path>
                <path d="M3,328 L37,333" id="Stroke-401" stroke="#82848C" stroke-width="0.25"></path>
                <path d="M726,430 L760,435" id="Stroke-403" stroke="#82848C" stroke-width="0.25"></path>
                <path d="M435,3 L430,37" id="Stroke-405" stroke="#82848C" stroke-width="0.25"></path>
                <path d="M2,342 L36,345" id="Stroke-409" stroke="#82848C" stroke-width="0.25"></path>
                <path d="M727,418 L761,421" id="Stroke-411" stroke="#82848C" stroke-width="0.25"></path>
                <path d="M421,2 L418,36" id="Stroke-413" stroke="#82848C" stroke-width="0.25"></path>
                <path d="M1,355 L35,357" id="Stroke-417" stroke="#82848C" stroke-width="0.25"></path>
                <path d="M728,406 L762,408" id="Stroke-419" stroke="#82848C" stroke-width="0.25"></path>
                <path d="M408,1 L406,35" id="Stroke-421" stroke="#82848C" stroke-width="0.25"></path>
                <path d="M0,368 L34,369" id="Stroke-425" stroke="#82848C" stroke-width="0.25"></path>
                <path d="M729,394 L763,395" id="Stroke-427" stroke="#82848C" stroke-width="0.25"></path>
                <path d="M395,0 L394,34" id="Stroke-429" stroke="#82848C" stroke-width="0.25"></path>
            </g>
        </g>
    </g>
</svg>