
<svg width="173px" height="26px" viewBox="0 0 173 26" version="1.1" xmlns="http://www.w3.org/2000/svg" xmlns:xlink="http://www.w3.org/1999/xlink">
    <!-- Generator: Sketch 51.3 (57544) - http://www.bohemiancoding.com/sketch -->
    <desc>Created with Sketch.</desc>
    <defs>
        <polygon id="path-1" points="0.0109018837 0.0439119318 34.0238706 0.0439119318 34.0238706 15.7083333 0.0109018837 15.7083333"></polygon>
    </defs>
    <g id="Page-1" stroke="none" stroke-width="1" fill="none" fill-rule="evenodd">
        <g id="002ConfirmBook1" transform="translate(-51.000000, -40.000000)">
            <g id="Logo---Horizontal-Lockup" transform="translate(51.000000, 40.000000)">
                <g id="Group-3" transform="translate(0.000000, 10.291667)">
                    <mask id="mask-2" fill="white">
                        <use xlink:href="#path-1"></use>
                    </mask>
                    <g id="Clip-2"></g>
                    <polyline id="Fill-1" fill="#FFFFFF" mask="url(#mask-2)" points="17.0120262 12.5782694 0 0.0439119318 0 3.17397585 17.0120262 15.7083333 34.0238706 3.17397585 34.0238706 0.0442689394 17.0120262 12.5782694"></polyline>
                </g>
                <path d="M17.336353,0 L4.40764331,9.16156316 L6.76664598,10.8333333 L6.83027926,10.8309145 C10.2758019,10.6761082 11.7788638,8.49724358 12.794802,6.38610677 C13.5097621,4.90127907 14.7275714,3.13119996 16.4720009,3.13119996 C17.1662985,3.13119996 17.9092353,3.40833094 18.6805146,3.95481803 L28.1649816,10.6767993 L30.3025478,9.16156316 L17.336353,0" id="Fill-4" fill="#FFFFFF"></path>
                <path d="M40.8394756,19.6355223 L40.8394756,17.4914911 C42.0077513,18.0555422 43.7027028,18.6425942 45.4894141,18.6425942 C47.5510455,18.6425942 49.0858215,17.8073102 49.0858215,16.3177412 C49.0858215,14.8055251 48.1924659,13.9930651 45.4206392,13.0450771 C42.2596866,11.961738 40.7707006,10.6303439 40.7707006,8.14749287 C40.7707006,5.39393979 43.1072521,3.79166667 46.2682048,3.79166667 C47.9175458,3.79166667 49.4523218,4.22036673 50.3684827,4.62677368 L50.3684827,6.68057078 C49.4523218,6.20639984 47.8717557,5.73258277 46.3827698,5.73258277 C44.3439436,5.73258277 42.9239122,6.63527684 42.9239122,8.07972889 C42.9239122,9.41147688 43.7256877,10.3594649 46.5429453,11.329746 C49.7042571,12.458379 51.2388535,13.7221861 51.2388535,16.1597431 C51.2388535,18.9359432 49.0628367,20.5833333 45.6039791,20.5833333 C43.7027028,20.5833333 41.9389764,20.1095163 40.8394756,19.6355223" id="Fill-5" fill="#FFFFFF"></path>
                <path d="M63.5005281,14.7357964 C62.365634,12.2940414 61.5083804,10.3848052 60.6051863,8.12055654 C59.678568,10.3848052 58.821496,12.2940414 57.6866019,14.7357964 L63.5005281,14.7357964 Z M60.5821253,3.79166667 L60.628429,3.79166667 L68.3184713,20.0416667 L65.9558942,20.0416667 L64.3112965,16.4896276 L56.8760151,16.4896276 L55.2544785,20.0416667 L52.8917197,20.0416667 L60.5821253,3.79166667 Z" id="Fill-6" fill="#FFFFFF"></path>
                <polyline id="Fill-7" fill="#FFFFFF" points="84.8237329 20.5833333 74.3993957 9.63723886 73.8630048 9.07283391 73.8630048 20.3128082 71.6242038 20.3128082 71.6242038 3.79166667 71.6476046 3.79166667 82.0721247 14.738115 82.6083327 15.3019892 82.6083327 4.06254566 84.8471338 4.06254566 84.8471338 20.5833333 84.8237329 20.5833333"></polyline>
                <path d="M92.5901085,6.16133891 L92.5901085,18.7549739 L95.2426717,18.7549739 C99.1980788,18.7549739 101.85046,16.2272236 101.85046,12.4581564 C101.85046,8.68908916 99.1747323,6.16133891 95.1496505,6.16133891 L92.5901085,6.16133891 Z M90.3566879,20.5833333 L90.3566879,4.33333333 L95.1728146,4.33333333 C100.547433,4.33333333 104.130573,7.58329795 104.130573,12.4581564 C104.130573,17.3331918 100.593944,20.5833333 95.2658358,20.5833333 L90.3566879,20.5833333 Z" id="Fill-8" fill="#FFFFFF"></path>
                <path d="M110.095779,18.8225599 L113.655714,18.8225599 C115.537437,18.8225599 116.784454,17.6491827 116.784454,15.9112328 C116.784454,14.1734597 115.696158,13.0676685 114.086376,13.0676685 L110.095779,13.0676685 L110.095779,18.8225599 Z M114.426568,11.3748349 C115.44679,11.1037833 116.126997,10.2012808 116.126997,8.89220089 C116.126997,7.22219077 115.015951,6.09357602 113.156801,6.09357602 L110.095779,6.09357602 L110.095779,11.3748349 L114.426568,11.3748349 Z M119.006369,16.0014653 C119.006369,18.7549739 116.829777,20.5833333 113.58764,20.5833333 L107.987261,20.5833333 L107.987261,4.33333333 L112.99808,4.33333333 C116.217644,4.33333333 118.348913,6.00334346 118.348913,8.77932173 C118.348913,10.1788111 117.578059,11.4648905 116.308469,12.0521099 C117.918073,12.6387985 119.006369,14.2187529 119.006369,16.0014653 Z" id="Fill-9" fill="#FFFFFF"></path>
                <path d="M130.851911,18.5748302 C134.462248,18.5748302 137.123738,15.8663941 137.123738,12.1875 C137.123738,8.50860588 134.462248,5.80034675 130.851911,5.80034675 C127.241573,5.80034675 124.557042,8.50860588 124.557042,12.1875 C124.557042,15.8663941 127.241573,18.5748302 130.851911,18.5748302 Z M130.851911,3.79166667 C135.619371,3.79166667 139.39172,7.42526684 139.39172,12.1875 C139.39172,16.9497332 135.688856,20.5833333 130.851911,20.5833333 C126.014966,20.5833333 122.312102,16.9497332 122.312102,12.1875 C122.312102,7.49303082 126.014966,3.79166667 130.851911,3.79166667 Z" id="Fill-10" fill="#FFFFFF"></path>
                <polyline id="Fill-11" fill="#FFFFFF" points="155.756975 4.33333333 150.008244 12.3454542 155.920382 20.5833333 153.326574 20.5833333 148.746238 14.037934 144.166084 20.5833333 141.595541 20.5833333 147.50768 12.3454542 141.758948 4.33333333 144.329674 4.33333333 148.746238 10.675444 153.186249 4.33333333 155.756975 4.33333333"></polyline>
                <path d="M160.615965,9.20833333 L160.590864,9.20833333 L156.471338,0 L157.749178,0 L158.9777,2.83046631 C159.598148,4.26451429 160.094683,5.33373387 160.603415,6.6294481 C161.112324,5.33373387 161.608328,4.26451429 162.228953,2.83046631 L163.457475,0 L164.735669,0 L160.615965,9.20833333" id="Fill-12" fill="#FFFFFF"></path>
                <path d="M167.653007,1.03588057 L167.653007,4.59150509 L169.523076,4.59150509 C170.774228,4.59150509 171.525032,3.92636265 171.525032,2.81378392 C171.525032,1.70084083 170.734643,1.03588057 169.417453,1.03588057 L167.653007,1.03588057 Z M169.457038,0 C171.537977,0 172.78913,1.04863323 172.78913,2.81378392 C172.78913,4.19507947 171.867415,5.0901342 170.853211,5.39729119 L173,9.20833333 L171.590695,9.20833333 L169.628324,5.60169816 L167.653007,5.60169816 L167.653007,9.20833333 L166.388535,9.20833333 L166.388535,0 L169.457038,0 Z" id="Fill-13" fill="#FFFFFF"></path>
            </g>
        </g>
    </g>
</svg>